<svg width="67" height="20" viewBox="0 0 67 20" fill="none" xmlns="http://www.w3.org/2000/svg">
<g filter="url(#filter0_dd_2_7459)">
<mask id="path-1-outside-1_2_7459" maskUnits="userSpaceOnUse" x="4" y="3" width="43" height="12" fill="black">
<rect fill="white" x="4" y="3" width="43" height="12"/>
<path d="M12.32 4.66L12.152 9.88L12.296 13H10.616L10.76 10.084L10.736 9.448H7.508L7.496 9.88L7.64 13H5.96L6.104 10.084L5.96 4.96L7.664 4.66L7.544 8.176H10.7L10.616 4.96L12.32 4.66ZM19.0932 13.06L18.5052 10.72H15.6372L15.0012 13L13.4652 12.88L14.5212 9.964L16.1292 4.804L18.2772 4.648L19.8252 9.784L20.8212 12.796L19.0932 13.06ZM17.1972 6.208H17.0412L16.0092 9.448H18.1452L17.1972 6.208ZM28.3041 4.696L28.1481 9.88L28.2801 12.736L26.8641 13.036L23.2881 7.252V9.88L23.4561 13H21.9561L22.1001 10.084L21.9561 4.756L23.3961 4.684L26.9601 10.552L26.8401 4.876L28.3041 4.696ZM33.1215 13.132C32.0735 13.132 31.2295 12.78 30.5895 12.076C29.9495 11.372 29.6295 10.44 29.6295 9.28C29.6295 7.96 30.0295 6.848 30.8295 5.944C31.6295 5.04 32.6135 4.588 33.7815 4.588C34.2455 4.588 34.6735 4.632 35.0655 4.72C35.4655 4.8 35.7495 4.884 35.9175 4.972L36.1575 5.104L35.4615 6.772C35.2215 6.612 34.8975 6.464 34.4895 6.328C34.0815 6.184 33.7215 6.112 33.4095 6.112C32.7615 6.112 32.2415 6.34 31.8495 6.796C31.4575 7.252 31.2615 7.856 31.2615 8.608C31.2615 9.624 31.4455 10.416 31.8135 10.984C32.1895 11.552 32.7095 11.836 33.3735 11.836C33.8055 11.836 34.2135 11.776 34.5975 11.656V9.796H33.0495L33.1695 8.584H36.0495L35.9415 10.54L36.0255 12.616C34.8495 12.96 33.8815 13.132 33.1215 13.132ZM41.3384 9.256H41.4584L43.2104 4.696L44.8664 4.744L44.9144 9.904L45.1424 13H43.5224L43.5824 9.88L43.4504 6.724L42.0104 10.696L40.5344 10.768L39.1904 6.724L39.0824 9.88L39.1664 13H37.6784L37.8464 10.084L37.9184 4.936L39.8264 4.636L41.3384 9.256Z"/>
</mask>
<path d="M12.32 4.66L12.152 9.88L12.296 13H10.616L10.76 10.084L10.736 9.448H7.508L7.496 9.88L7.64 13H5.96L6.104 10.084L5.96 4.96L7.664 4.66L7.544 8.176H10.7L10.616 4.96L12.32 4.66ZM19.0932 13.06L18.5052 10.72H15.6372L15.0012 13L13.4652 12.88L14.5212 9.964L16.1292 4.804L18.2772 4.648L19.8252 9.784L20.8212 12.796L19.0932 13.06ZM17.1972 6.208H17.0412L16.0092 9.448H18.1452L17.1972 6.208ZM28.3041 4.696L28.1481 9.88L28.2801 12.736L26.8641 13.036L23.2881 7.252V9.88L23.4561 13H21.9561L22.1001 10.084L21.9561 4.756L23.3961 4.684L26.9601 10.552L26.8401 4.876L28.3041 4.696ZM33.1215 13.132C32.0735 13.132 31.2295 12.78 30.5895 12.076C29.9495 11.372 29.6295 10.44 29.6295 9.28C29.6295 7.96 30.0295 6.848 30.8295 5.944C31.6295 5.04 32.6135 4.588 33.7815 4.588C34.2455 4.588 34.6735 4.632 35.0655 4.72C35.4655 4.8 35.7495 4.884 35.9175 4.972L36.1575 5.104L35.4615 6.772C35.2215 6.612 34.8975 6.464 34.4895 6.328C34.0815 6.184 33.7215 6.112 33.4095 6.112C32.7615 6.112 32.2415 6.34 31.8495 6.796C31.4575 7.252 31.2615 7.856 31.2615 8.608C31.2615 9.624 31.4455 10.416 31.8135 10.984C32.1895 11.552 32.7095 11.836 33.3735 11.836C33.8055 11.836 34.2135 11.776 34.5975 11.656V9.796H33.0495L33.1695 8.584H36.0495L35.9415 10.54L36.0255 12.616C34.8495 12.96 33.8815 13.132 33.1215 13.132ZM41.3384 9.256H41.4584L43.2104 4.696L44.8664 4.744L44.9144 9.904L45.1424 13H43.5224L43.5824 9.88L43.4504 6.724L42.0104 10.696L40.5344 10.768L39.1904 6.724L39.0824 9.88L39.1664 13H37.6784L37.8464 10.084L37.9184 4.936L39.8264 4.636L41.3384 9.256Z" fill="white"/>
<path d="M12.32 4.66L13.3195 4.69217L13.3591 3.46168L12.1466 3.67515L12.32 4.66ZM12.152 9.88L11.1525 9.84783L11.1513 9.88698L11.1531 9.9261L12.152 9.88ZM12.296 13V14H13.3432L13.2949 12.9539L12.296 13ZM10.616 13L9.61722 12.9507L9.5654 14H10.616V13ZM10.76 10.084L11.7588 10.1333L11.7609 10.0898L11.7593 10.0463L10.76 10.084ZM10.736 9.448L11.7353 9.41029L11.699 8.448H10.736V9.448ZM7.508 9.448V8.448H6.53539L6.50839 9.42023L7.508 9.448ZM7.496 9.88L6.49639 9.85223L6.49536 9.88918L6.49706 9.9261L7.496 9.88ZM7.64 13V14H8.68722L8.63894 12.9539L7.64 13ZM5.96 13L4.96122 12.9507L4.9094 14H5.96V13ZM6.104 10.084L7.10278 10.1333L7.10469 10.0946L7.10361 10.0559L6.104 10.084ZM5.96 4.96L5.78661 3.97515L4.93614 4.12488L4.96039 4.98809L5.96 4.96ZM7.664 4.66L8.66342 4.69411L8.7055 3.46126L7.49061 3.67515L7.664 4.66ZM7.544 8.176L6.54458 8.14189L6.50929 9.176H7.544V8.176ZM10.7 8.176V9.176H11.7265L11.6997 8.14989L10.7 8.176ZM10.616 4.96L10.4426 3.97515L9.59384 4.12458L9.61634 4.98611L10.616 4.96ZM12.32 4.66L11.3205 4.62783L11.1525 9.84783L12.152 9.88L13.1515 9.91217L13.3195 4.69217L12.32 4.66ZM12.152 9.88L11.1531 9.9261L11.2971 13.0461L12.296 13L13.2949 12.9539L13.1509 9.83389L12.152 9.88ZM12.296 13V12H10.616V13V14H12.296V13ZM10.616 13L11.6148 13.0493L11.7588 10.1333L10.76 10.084L9.76122 10.0347L9.61722 12.9507L10.616 13ZM10.76 10.084L11.7593 10.0463L11.7353 9.41029L10.736 9.448L9.73671 9.48571L9.76071 10.1217L10.76 10.084ZM10.736 9.448V8.448H7.508V9.448V10.448H10.736V9.448ZM7.508 9.448L6.50839 9.42023L6.49639 9.85223L7.496 9.88L8.49561 9.90777L8.50761 9.47577L7.508 9.448ZM7.496 9.88L6.49706 9.9261L6.64106 13.0461L7.64 13L8.63894 12.9539L8.49494 9.83389L7.496 9.88ZM7.64 13V12H5.96V13V14H7.64V13ZM5.96 13L6.95878 13.0493L7.10278 10.1333L6.104 10.084L5.10522 10.0347L4.96122 12.9507L5.96 13ZM6.104 10.084L7.10361 10.0559L6.95961 4.93191L5.96 4.96L4.96039 4.98809L5.10439 10.1121L6.104 10.084ZM5.96 4.96L6.13339 5.94485L7.83739 5.64485L7.664 4.66L7.49061 3.67515L5.78661 3.97515L5.96 4.96ZM7.664 4.66L6.66458 4.62589L6.54458 8.14189L7.544 8.176L8.54342 8.21011L8.66342 4.69411L7.664 4.66ZM7.544 8.176V9.176H10.7V8.176V7.176H7.544V8.176ZM10.7 8.176L11.6997 8.14989L11.6157 4.93389L10.616 4.96L9.61634 4.98611L9.70034 8.20211L10.7 8.176ZM10.616 4.96L10.7894 5.94485L12.4934 5.64485L12.32 4.66L12.1466 3.67515L10.4426 3.97515L10.616 4.96ZM19.0932 13.06L18.1233 13.3037L18.345 14.1859L19.2442 14.0485L19.0932 13.06ZM18.5052 10.72L19.475 10.4763L19.285 9.72H18.5052V10.72ZM15.6372 10.72V9.72H14.8779L14.6739 10.4513L15.6372 10.72ZM15.0012 13L14.9233 13.997L15.7434 14.061L15.9644 13.2687L15.0012 13ZM13.4652 12.88L12.5249 12.5395L12.0776 13.7746L13.3873 13.877L13.4652 12.88ZM14.5212 9.964L15.4614 10.3045L15.4691 10.2832L15.4759 10.2615L14.5212 9.964ZM16.1292 4.804L16.0567 3.80663L15.3772 3.85598L15.1744 4.50648L16.1292 4.804ZM18.2772 4.648L19.2346 4.35942L19.0035 3.59261L18.2047 3.65063L18.2772 4.648ZM19.8252 9.784L18.8677 10.0726L18.8715 10.0853L18.8757 10.098L19.8252 9.784ZM20.8212 12.796L20.9722 13.7845L22.1422 13.6058L21.7706 12.482L20.8212 12.796ZM17.1972 6.208L18.1569 5.92718L17.9465 5.208H17.1972V6.208ZM17.0412 6.208V5.208H16.3102L16.0883 5.9045L17.0412 6.208ZM16.0092 9.448L15.0563 9.1445L14.6411 10.448H16.0092V9.448ZM18.1452 9.448V10.448H19.4797L19.1049 9.16718L18.1452 9.448ZM19.0932 13.06L20.063 12.8163L19.475 10.4763L18.5052 10.72L17.5353 10.9637L18.1233 13.3037L19.0932 13.06ZM18.5052 10.72V9.72H15.6372V10.72V11.72H18.5052V10.72ZM15.6372 10.72L14.6739 10.4513L14.0379 12.7313L15.0012 13L15.9644 13.2687L16.6004 10.9887L15.6372 10.72ZM15.0012 13L15.079 12.003L13.543 11.883L13.4652 12.88L13.3873 13.877L14.9233 13.997L15.0012 13ZM13.4652 12.88L14.4054 13.2205L15.4614 10.3045L14.5212 9.964L13.5809 9.6235L12.5249 12.5395L13.4652 12.88ZM14.5212 9.964L15.4759 10.2615L17.0839 5.10152L16.1292 4.804L15.1744 4.50648L13.5664 9.66648L14.5212 9.964ZM16.1292 4.804L16.2016 5.80137L18.3496 5.64537L18.2772 4.648L18.2047 3.65063L16.0567 3.80663L16.1292 4.804ZM18.2772 4.648L17.3197 4.93658L18.8677 10.0726L19.8252 9.784L20.7826 9.49542L19.2346 4.35942L18.2772 4.648ZM19.8252 9.784L18.8757 10.098L19.8717 13.11L20.8212 12.796L21.7706 12.482L20.7746 9.47004L19.8252 9.784ZM20.8212 12.796L20.6701 11.8075L18.9421 12.0715L19.0932 13.06L19.2442 14.0485L20.9722 13.7845L20.8212 12.796ZM17.1972 6.208V5.208H17.0412V6.208V7.208H17.1972V6.208ZM17.0412 6.208L16.0883 5.9045L15.0563 9.1445L16.0092 9.448L16.962 9.75149L17.994 6.51149L17.0412 6.208ZM16.0092 9.448V10.448H18.1452V9.448V8.448H16.0092V9.448ZM18.1452 9.448L19.1049 9.16718L18.1569 5.92718L17.1972 6.208L16.2374 6.48882L17.1854 9.72882L18.1452 9.448ZM28.3041 4.696L29.3036 4.72608L29.3387 3.56126L28.1821 3.70347L28.3041 4.696ZM28.1481 9.88L27.1485 9.84992L27.1474 9.88806L27.1492 9.92617L28.1481 9.88ZM28.2801 12.736L28.4874 13.7143L29.3182 13.5383L29.279 12.6898L28.2801 12.736ZM26.8641 13.036L26.0135 13.5619L26.3834 14.16L27.0714 14.0143L26.8641 13.036ZM23.2881 7.252L24.1387 6.72613L22.2881 3.73293V7.252H23.2881ZM23.2881 9.88H22.2881V9.9069L22.2895 9.93377L23.2881 9.88ZM23.4561 13V14H24.5114L24.4546 12.9462L23.4561 13ZM21.9561 13L20.9573 12.9507L20.9055 14H21.9561V13ZM22.1001 10.084L23.0989 10.1333L23.1008 10.0952L23.0997 10.057L22.1001 10.084ZM21.9561 4.756L21.9062 3.75725L20.9301 3.80605L20.9565 4.78302L21.9561 4.756ZM23.3961 4.684L24.2508 4.16488L23.9414 3.65548L23.3462 3.68525L23.3961 4.684ZM26.9601 10.552L26.1054 11.0711L28.0386 14.2541L27.9599 10.5309L26.9601 10.552ZM26.8401 4.876L26.7181 3.88347L25.8212 3.99374L25.8403 4.89714L26.8401 4.876ZM28.3041 4.696L27.3045 4.66592L27.1485 9.84992L28.1481 9.88L29.1476 9.91008L29.3036 4.72608L28.3041 4.696ZM28.1481 9.88L27.1492 9.92617L27.2812 12.7822L28.2801 12.736L29.279 12.6898L29.147 9.83383L28.1481 9.88ZM28.2801 12.736L28.0728 11.7577L26.6568 12.0577L26.8641 13.036L27.0714 14.0143L28.4874 13.7143L28.2801 12.736ZM26.8641 13.036L27.7147 12.5101L24.1387 6.72613L23.2881 7.252L22.4375 7.77787L26.0135 13.5619L26.8641 13.036ZM23.2881 7.252H22.2881V9.88H23.2881H24.2881V7.252H23.2881ZM23.2881 9.88L22.2895 9.93377L22.4575 13.0538L23.4561 13L24.4546 12.9462L24.2866 9.82623L23.2881 9.88ZM23.4561 13V12H21.9561V13V14H23.4561V13ZM21.9561 13L22.9549 13.0493L23.0989 10.1333L22.1001 10.084L21.1013 10.0347L20.9573 12.9507L21.9561 13ZM22.1001 10.084L23.0997 10.057L22.9557 4.72898L21.9561 4.756L20.9565 4.78302L21.1005 10.111L22.1001 10.084ZM21.9561 4.756L22.006 5.75475L23.446 5.68275L23.3961 4.684L23.3462 3.68525L21.9062 3.75725L21.9561 4.756ZM23.3961 4.684L22.5414 5.20311L26.1054 11.0711L26.9601 10.552L27.8148 10.0329L24.2508 4.16488L23.3961 4.684ZM26.9601 10.552L27.9599 10.5309L27.8399 4.85486L26.8401 4.876L25.8403 4.89714L25.9603 10.5731L26.9601 10.552ZM26.8401 4.876L26.9621 5.86853L28.4261 5.68853L28.3041 4.696L28.1821 3.70347L26.7181 3.88347L26.8401 4.876ZM30.5895 12.076L31.3295 11.4033L31.3295 11.4033L30.5895 12.076ZM30.8295 5.944L31.5784 6.60672L31.5784 6.60672L30.8295 5.944ZM35.0655 4.72L34.8465 5.69572L34.8579 5.69828L34.8694 5.70058L35.0655 4.72ZM35.9175 4.972L36.3994 4.09578L36.3905 4.09088L36.3815 4.08617L35.9175 4.972ZM36.1575 5.104L37.0804 5.48909L37.4262 4.66048L36.6394 4.22778L36.1575 5.104ZM35.4615 6.772L34.9068 7.60405L35.9169 8.27744L36.3844 7.15709L35.4615 6.772ZM34.4895 6.328L34.1567 7.27099L34.165 7.27391L34.1733 7.27668L34.4895 6.328ZM31.8495 6.796L31.0912 6.14411L31.0912 6.14411L31.8495 6.796ZM31.8135 10.984L30.9742 11.5278L30.9797 11.536L31.8135 10.984ZM34.5975 11.656L34.8958 12.6105L35.5975 12.3912V11.656H34.5975ZM34.5975 9.796H35.5975V8.796H34.5975V9.796ZM33.0495 9.796L32.0544 9.69747L31.9456 10.796H33.0495V9.796ZM33.1695 8.584V7.584H32.2637L32.1744 8.48547L33.1695 8.584ZM36.0495 8.584L37.048 8.63913L37.1063 7.584H36.0495V8.584ZM35.9415 10.54L34.9431 10.4849L34.9404 10.5326L34.9423 10.5804L35.9415 10.54ZM36.0255 12.616L36.3063 13.5758L37.0563 13.3564L37.0247 12.5756L36.0255 12.616ZM33.1215 13.132V12.132C32.3234 12.132 31.7595 11.8764 31.3295 11.4033L30.5895 12.076L29.8496 12.7487C30.6996 13.6836 31.8237 14.132 33.1215 14.132V13.132ZM30.5895 12.076L31.3295 11.4033C30.8917 10.9218 30.6295 10.2485 30.6295 9.28H29.6295H28.6295C28.6295 10.6315 29.0074 11.8222 29.8496 12.7487L30.5895 12.076ZM29.6295 9.28H30.6295C30.6295 8.17949 30.9558 7.31021 31.5784 6.60672L30.8295 5.944L30.0807 5.28128C29.1032 6.38579 28.6295 7.74051 28.6295 9.28H29.6295ZM30.8295 5.944L31.5784 6.60672C32.1958 5.909 32.9107 5.588 33.7815 5.588V4.588V3.588C32.3164 3.588 31.0632 4.171 30.0807 5.28128L30.8295 5.944ZM33.7815 4.588V5.588C34.1829 5.588 34.5364 5.62611 34.8465 5.69572L35.0655 4.72L35.2846 3.74428C34.8106 3.63789 34.3081 3.588 33.7815 3.588V4.588ZM35.0655 4.72L34.8694 5.70058C35.0501 5.73671 35.1902 5.77096 35.2949 5.80193C35.3468 5.81727 35.3859 5.83061 35.4141 5.84137C35.4431 5.85239 35.4546 5.85842 35.4535 5.85783L35.9175 4.972L36.3815 4.08617C36.0781 3.92724 35.6732 3.82173 35.2616 3.73942L35.0655 4.72ZM35.9175 4.972L35.4356 5.84822L35.6756 5.98022L36.1575 5.104L36.6394 4.22778L36.3994 4.09578L35.9175 4.972ZM36.1575 5.104L35.2347 4.71891L34.5387 6.38691L35.4615 6.772L36.3844 7.15709L37.0804 5.48909L36.1575 5.104ZM35.4615 6.772L36.0162 5.93995C35.6757 5.7129 35.2611 5.53109 34.8058 5.37932L34.4895 6.328L34.1733 7.27668C34.534 7.39691 34.7674 7.5111 34.9068 7.60405L35.4615 6.772ZM34.4895 6.328L34.8224 5.38501C34.3457 5.21678 33.8694 5.112 33.4095 5.112V6.112V7.112C33.5737 7.112 33.8174 7.15122 34.1567 7.27099L34.4895 6.328ZM33.4095 6.112V5.112C32.4957 5.112 31.6893 5.44841 31.0912 6.14411L31.8495 6.796L32.6078 7.44789C32.7938 7.23159 33.0273 7.112 33.4095 7.112V6.112ZM31.8495 6.796L31.0912 6.14411C30.5072 6.82351 30.2615 7.6787 30.2615 8.608H31.2615H32.2615C32.2615 8.0333 32.4079 7.68049 32.6078 7.44789L31.8495 6.796ZM31.2615 8.608H30.2615C30.2615 9.72651 30.4611 10.7357 30.9743 11.5277L31.8135 10.984L32.6528 10.4403C32.4299 10.0963 32.2615 9.52149 32.2615 8.608H31.2615ZM31.8135 10.984L30.9797 11.536C31.5351 12.375 32.3637 12.836 33.3735 12.836V11.836V10.836C33.0554 10.836 32.844 10.729 32.6474 10.432L31.8135 10.984ZM33.3735 11.836V12.836C33.8992 12.836 34.4084 12.7628 34.8958 12.6105L34.5975 11.656L34.2993 10.7015C34.0187 10.7892 33.7118 10.836 33.3735 10.836V11.836ZM34.5975 11.656H35.5975V9.796H34.5975H33.5975V11.656H34.5975ZM34.5975 9.796V8.796H33.0495V9.796V10.796H34.5975V9.796ZM33.0495 9.796L34.0447 9.89453L34.1647 8.68253L33.1695 8.584L32.1744 8.48547L32.0544 9.69747L33.0495 9.796ZM33.1695 8.584V9.584H36.0495V8.584V7.584H33.1695V8.584ZM36.0495 8.584L35.0511 8.52887L34.9431 10.4849L35.9415 10.54L36.94 10.5951L37.048 8.63913L36.0495 8.584ZM35.9415 10.54L34.9423 10.5804L35.0263 12.6564L36.0255 12.616L37.0247 12.5756L36.9407 10.4996L35.9415 10.54ZM36.0255 12.616L35.7448 11.6562C34.6115 11.9877 33.7466 12.132 33.1215 12.132V13.132V14.132C34.0165 14.132 35.0875 13.9323 36.3063 13.5758L36.0255 12.616ZM41.3384 9.256L40.388 9.56704L40.6135 10.256H41.3384V9.256ZM41.4584 9.256V10.256H42.1455L42.3919 9.61465L41.4584 9.256ZM43.2104 4.696L43.2394 3.69642L42.5311 3.67589L42.277 4.33735L43.2104 4.696ZM44.8664 4.744L45.8664 4.7347L45.8574 3.7723L44.8954 3.74442L44.8664 4.744ZM44.9144 9.904L43.9145 9.9133L43.9148 9.94542L43.9171 9.97744L44.9144 9.904ZM45.1424 13V14H46.2188L46.1397 12.9266L45.1424 13ZM43.5224 13L42.5226 12.9808L42.503 14H43.5224V13ZM43.5824 9.88L44.5823 9.89923L44.5828 9.86871L44.5816 9.83821L43.5824 9.88ZM43.4504 6.724L44.4496 6.68221L42.5103 6.38317L43.4504 6.724ZM42.0104 10.696L42.0592 11.6948L42.7238 11.6624L42.9506 11.0368L42.0104 10.696ZM40.5344 10.768L39.5855 11.0834L39.8249 11.8038L40.5832 11.7668L40.5344 10.768ZM39.1904 6.724L40.1394 6.40862L38.191 6.6898L39.1904 6.724ZM39.0824 9.88L38.083 9.8458L38.082 9.87635L38.0828 9.90691L39.0824 9.88ZM39.1664 13V14H40.1937L40.1661 12.9731L39.1664 13ZM37.6784 13L36.6801 12.9425L36.6192 14H37.6784V13ZM37.8464 10.084L38.8448 10.1415L38.846 10.1198L38.8463 10.098L37.8464 10.084ZM37.9184 4.936L37.7631 3.94814L36.9303 4.07908L36.9185 4.92201L37.9184 4.936ZM39.8264 4.636L40.7768 4.32496L40.5121 3.51591L39.6711 3.64814L39.8264 4.636ZM41.3384 9.256V10.256H41.4584V9.256V8.256H41.3384V9.256ZM41.4584 9.256L42.3919 9.61465L44.1439 5.05465L43.2104 4.696L42.277 4.33735L40.525 8.89735L41.4584 9.256ZM43.2104 4.696L43.1815 5.69558L44.8375 5.74358L44.8664 4.744L44.8954 3.74442L43.2394 3.69642L43.2104 4.696ZM44.8664 4.744L43.8665 4.7533L43.9145 9.9133L44.9144 9.904L45.9144 9.8947L45.8664 4.7347L44.8664 4.744ZM44.9144 9.904L43.9171 9.97744L44.1451 13.0734L45.1424 13L46.1397 12.9266L45.9117 9.83056L44.9144 9.904ZM45.1424 13V12H43.5224V13V14H45.1424V13ZM43.5224 13L44.5223 13.0192L44.5823 9.89923L43.5824 9.88L42.5826 9.86077L42.5226 12.9808L43.5224 13ZM43.5824 9.88L44.5816 9.83821L44.4496 6.68221L43.4504 6.724L42.4513 6.76579L42.5833 9.92179L43.5824 9.88ZM43.4504 6.724L42.5103 6.38317L41.0703 10.3552L42.0104 10.696L42.9506 11.0368L44.3906 7.06483L43.4504 6.724ZM42.0104 10.696L41.9617 9.69719L40.4857 9.76919L40.5344 10.768L40.5832 11.7668L42.0592 11.6948L42.0104 10.696ZM40.5344 10.768L41.4834 10.4526L40.1394 6.40862L39.1904 6.724L38.2415 7.03938L39.5855 11.0834L40.5344 10.768ZM39.1904 6.724L38.191 6.6898L38.083 9.8458L39.0824 9.88L40.0819 9.9142L40.1899 6.7582L39.1904 6.724ZM39.0824 9.88L38.0828 9.90691L38.1668 13.0269L39.1664 13L40.1661 12.9731L40.0821 9.85309L39.0824 9.88ZM39.1664 13V12H37.6784V13V14H39.1664V13ZM37.6784 13L38.6768 13.0575L38.8448 10.1415L37.8464 10.084L36.8481 10.0265L36.6801 12.9425L37.6784 13ZM37.8464 10.084L38.8463 10.098L38.9183 4.94998L37.9184 4.936L36.9185 4.92201L36.8465 10.07L37.8464 10.084ZM37.9184 4.936L38.0738 5.92386L39.9818 5.62386L39.8264 4.636L39.6711 3.64814L37.7631 3.94814L37.9184 4.936ZM39.8264 4.636L38.876 4.94704L40.388 9.56704L41.3384 9.256L42.2888 8.94496L40.7768 4.32496L39.8264 4.636Z" fill="black" mask="url(#path-1-outside-1_2_7459)"/>
</g>
<g filter="url(#filter1_dd_2_7459)">
<mask id="path-3-outside-2_2_7459" maskUnits="userSpaceOnUse" x="53" y="3" width="10" height="12" fill="black">
<rect fill="white" x="53" y="3" width="10" height="12"/>
<path d="M61.308 4.696L61.152 9.88L61.284 12.736L59.868 13.036L56.292 7.252V9.88L56.46 13H54.96L55.104 10.084L54.96 4.756L56.4 4.684L59.964 10.552L59.844 4.876L61.308 4.696Z"/>
</mask>
<path d="M61.308 4.696L61.152 9.88L61.284 12.736L59.868 13.036L56.292 7.252V9.88L56.46 13H54.96L55.104 10.084L54.96 4.756L56.4 4.684L59.964 10.552L59.844 4.876L61.308 4.696Z" fill="white"/>
<path d="M61.308 4.696L62.3075 4.72608L62.3426 3.56126L61.186 3.70347L61.308 4.696ZM61.152 9.88L60.1525 9.84992L60.1513 9.88806L60.1531 9.92617L61.152 9.88ZM61.284 12.736L61.4913 13.7143L62.3221 13.5383L62.2829 12.6898L61.284 12.736ZM59.868 13.036L59.0174 13.5619L59.3873 14.16L60.0753 14.0143L59.868 13.036ZM56.292 7.252L57.1426 6.72613L55.292 3.73293V7.252H56.292ZM56.292 9.88H55.292V9.9069L55.2934 9.93377L56.292 9.88ZM56.46 13V14H57.5153L57.4586 12.9462L56.46 13ZM54.96 13L53.9612 12.9507L53.9094 14H54.96V13ZM55.104 10.084L56.1028 10.1333L56.1047 10.0952L56.1036 10.057L55.104 10.084ZM54.96 4.756L54.9101 3.75725L53.934 3.80605L53.9604 4.78302L54.96 4.756ZM56.4 4.684L57.2547 4.16488L56.9453 3.65548L56.3501 3.68525L56.4 4.684ZM59.964 10.552L59.1093 11.0711L61.0425 14.2541L60.9638 10.5309L59.964 10.552ZM59.844 4.876L59.722 3.88347L58.8251 3.99374L58.8442 4.89714L59.844 4.876ZM61.308 4.696L60.3085 4.66592L60.1525 9.84992L61.152 9.88L62.1515 9.91008L62.3075 4.72608L61.308 4.696ZM61.152 9.88L60.1531 9.92617L60.2851 12.7822L61.284 12.736L62.2829 12.6898L62.1509 9.83383L61.152 9.88ZM61.284 12.736L61.0767 11.7577L59.6607 12.0577L59.868 13.036L60.0753 14.0143L61.4913 13.7143L61.284 12.736ZM59.868 13.036L60.7186 12.5101L57.1426 6.72613L56.292 7.252L55.4414 7.77787L59.0174 13.5619L59.868 13.036ZM56.292 7.252H55.292V9.88H56.292H57.292V7.252H56.292ZM56.292 9.88L55.2934 9.93377L55.4614 13.0538L56.46 13L57.4586 12.9462L57.2906 9.82623L56.292 9.88ZM56.46 13V12H54.96V13V14H56.46V13ZM54.96 13L55.9588 13.0493L56.1028 10.1333L55.104 10.084L54.1052 10.0347L53.9612 12.9507L54.96 13ZM55.104 10.084L56.1036 10.057L55.9596 4.72898L54.96 4.756L53.9604 4.78302L54.1044 10.111L55.104 10.084ZM54.96 4.756L55.0099 5.75475L56.4499 5.68275L56.4 4.684L56.3501 3.68525L54.9101 3.75725L54.96 4.756ZM56.4 4.684L55.5453 5.20311L59.1093 11.0711L59.964 10.552L60.8187 10.0329L57.2547 4.16488L56.4 4.684ZM59.964 10.552L60.9638 10.5309L60.8438 4.85486L59.844 4.876L58.8442 4.89714L58.9642 10.5731L59.964 10.552ZM59.844 4.876L59.966 5.86853L61.43 5.68853L61.308 4.696L61.186 3.70347L59.722 3.88347L59.844 4.876Z" fill="black" mask="url(#path-3-outside-2_2_7459)"/>
</g>
<path d="M50.9588 4L52.1129 6.33762H53.1304L51.9451 4.00059L50.9588 4H50.9588ZM48.2421 4.014L47 6.49873L48.286 13.2517L50.526 13.2535L51.7863 6.50059L50.559 4.01523L48.2421 4.014ZM48.5558 5.50385H50.2898V5.86885H48.5558V5.50391V5.50385ZM48.5558 6.21127H50.2898V6.57625H48.5558V6.21127ZM52.1203 6.7026L50.8983 13.2474L51.8212 13.248L53.1554 6.70262L52.1203 6.7026Z" fill="black"/>
<defs>
<filter id="filter0_dd_2_7459" x="0.909393" y="0.461258" width="49.3094" height="18.7928" filterUnits="userSpaceOnUse" color-interpolation-filters="sRGB">
<feFlood flood-opacity="0" result="BackgroundImageFix"/>
<feColorMatrix in="SourceAlpha" type="matrix" values="0 0 0 0 0 0 0 0 0 0 0 0 0 0 0 0 0 0 127 0" result="hardAlpha"/>
<feMorphology radius="1" operator="dilate" in="SourceAlpha" result="effect1_dropShadow_2_7459"/>
<feOffset dy="1"/>
<feGaussianBlur stdDeviation="1.5"/>
<feColorMatrix type="matrix" values="0 0 0 0 0 0 0 0 0 0 0 0 0 0 0 0 0 0 0.15 0"/>
<feBlend mode="normal" in2="BackgroundImageFix" result="effect1_dropShadow_2_7459"/>
<feColorMatrix in="SourceAlpha" type="matrix" values="0 0 0 0 0 0 0 0 0 0 0 0 0 0 0 0 0 0 127 0" result="hardAlpha"/>
<feOffset dy="1"/>
<feGaussianBlur stdDeviation="1"/>
<feColorMatrix type="matrix" values="0 0 0 0 0 0 0 0 0 0 0 0 0 0 0 0 0 0 0.3 0"/>
<feBlend mode="normal" in2="effect1_dropShadow_2_7459" result="effect2_dropShadow_2_7459"/>
<feBlend mode="normal" in="SourceGraphic" in2="effect2_dropShadow_2_7459" result="shape"/>
</filter>
<filter id="filter1_dd_2_7459" x="49.9094" y="0.561264" width="16.4332" height="18.6928" filterUnits="userSpaceOnUse" color-interpolation-filters="sRGB">
<feFlood flood-opacity="0" result="BackgroundImageFix"/>
<feColorMatrix in="SourceAlpha" type="matrix" values="0 0 0 0 0 0 0 0 0 0 0 0 0 0 0 0 0 0 127 0" result="hardAlpha"/>
<feMorphology radius="1" operator="dilate" in="SourceAlpha" result="effect1_dropShadow_2_7459"/>
<feOffset dy="1"/>
<feGaussianBlur stdDeviation="1.5"/>
<feColorMatrix type="matrix" values="0 0 0 0 0 0 0 0 0 0 0 0 0 0 0 0 0 0 0.15 0"/>
<feBlend mode="normal" in2="BackgroundImageFix" result="effect1_dropShadow_2_7459"/>
<feColorMatrix in="SourceAlpha" type="matrix" values="0 0 0 0 0 0 0 0 0 0 0 0 0 0 0 0 0 0 127 0" result="hardAlpha"/>
<feOffset dy="1"/>
<feGaussianBlur stdDeviation="1"/>
<feColorMatrix type="matrix" values="0 0 0 0 0 0 0 0 0 0 0 0 0 0 0 0 0 0 0.3 0"/>
<feBlend mode="normal" in2="effect1_dropShadow_2_7459" result="effect2_dropShadow_2_7459"/>
<feBlend mode="normal" in="SourceGraphic" in2="effect2_dropShadow_2_7459" result="shape"/>
</filter>
</defs>
</svg>
